# xmcd CD database file
#
# Track frame offsets:
#	150
#	20315
#	36865
#	52682
#	64851
#	82545
#	97723
#	111228
#	125897
#	142049
#
# Disc length: 2072 seconds
#
# Revision: 0
# Processed by: cddbd v1.5.1PL2 Copyright (c) Steve Scherf et al.
# Submitted via: CDex 1.51
#
DISCID=7708160a
DTITLE=Cash, Johnny - The Man Comes Around
DYEAR=2002
DGENRE=Country
TTITLE0=The Man Comes Around
TTITLE1=Hurt
TTITLE2=Give My Love to Rose
TTITLE3=Sam Hall
TTITLE4=I Hung My Head
TTITLE5=Personal Jesus
TTITLE6=In My Life
TTITLE7=Desperado
TTITLE8=The Streets of Laredo
TTITLE9=We'll Meet Again
EXTD=YEAR: 2002
EXTT0=
EXTT1=
EXTT2=
EXTT3=
EXTT4=
EXTT5=
EXTT6=
EXTT7=
EXTT8=
EXTT9=
PLAYORDER=
